<svg xmlns="http://www.w3.org/2000/svg" width="26.027" height="26.027" viewBox="0 0 26.027 26.027"><defs><style>.a{fill:none;}.b{fill:#fff;}</style></defs><path class="a" d="M26.027,26.027H0V0H26.027Z"/><path class="b" d="M16.556,14.929h-.868l-.325-.325A6.788,6.788,0,0,0,17.1,10.049,7.049,7.049,0,1,0,10.049,17.1,6.788,6.788,0,0,0,14.6,15.363l.325.325v.868l5.422,5.422,1.627-1.627-5.422-5.422Zm-6.507,0a4.88,4.88,0,1,1,4.88-4.88,4.86,4.86,0,0,1-4.88,4.88Z" transform="translate(0.253 0.253)"/></svg>