<svg xmlns="http://www.w3.org/2000/svg" width="10.33" height="16.804" viewBox="0 0 10.33 16.804"><defs><style>.a{fill:#fff;}</style></defs><path class="a" d="M386.191,366.09a4.965,4.965,0,0,0,.241,1.757,3,3,0,0,0,.867,1.144,4.354,4.354,0,0,0,1.51.829,6.507,6.507,0,0,0,2.036.291,8.376,8.376,0,0,0,1.887-.2,10.059,10.059,0,0,0,1.949-.711v-2.642a4.584,4.584,0,0,1-2.539.83,2.424,2.424,0,0,1-1.275-.335,1.278,1.278,0,0,1-.576-.662,6.861,6.861,0,0,1-.154-1.876V360.2h3.99v-2.638h-3.99v-4.256h-2.38a6.556,6.556,0,0,1-.587,2.139,4.6,4.6,0,0,1-1.129,1.44,4.922,4.922,0,0,1-1.69.921V360.2h1.84Z" transform="translate(-384.351 -353.307)"/></svg>