<svg xmlns="http://www.w3.org/2000/svg" width="16.248" height="16.248" viewBox="0 0 16.248 16.248"><defs><style>.a{fill:#fff;}</style></defs><g transform="translate(0 0)"><path class="a" d="M102.241,355.215c2.169,0,2.426.008,3.283.048a4.485,4.485,0,0,1,1.508.279,2.693,2.693,0,0,1,1.542,1.542,4.494,4.494,0,0,1,.28,1.508c.039.857.047,1.113.047,3.283s-.008,2.426-.047,3.283a4.494,4.494,0,0,1-.28,1.508,2.688,2.688,0,0,1-1.542,1.542,4.5,4.5,0,0,1-1.508.28c-.857.039-1.113.047-3.283.047s-2.426-.009-3.283-.047a4.5,4.5,0,0,1-1.508-.28,2.689,2.689,0,0,1-1.542-1.542,4.494,4.494,0,0,1-.28-1.508c-.039-.857-.047-1.113-.047-3.283s.008-2.426.047-3.283a4.494,4.494,0,0,1,.28-1.508,2.693,2.693,0,0,1,1.542-1.542,4.481,4.481,0,0,1,1.508-.279c.857-.039,1.113-.048,3.283-.048m0-1.464c-2.206,0-2.483.009-3.35.049a5.949,5.949,0,0,0-1.972.378,4.15,4.15,0,0,0-2.376,2.376,5.953,5.953,0,0,0-.378,1.972c-.039.867-.049,1.143-.049,3.35s.009,2.483.049,3.35a5.949,5.949,0,0,0,.378,1.972,4.153,4.153,0,0,0,2.376,2.376,5.966,5.966,0,0,0,1.972.377c.867.039,1.143.049,3.35.049s2.483-.009,3.35-.049a5.966,5.966,0,0,0,1.972-.377,4.156,4.156,0,0,0,2.376-2.376,5.967,5.967,0,0,0,.377-1.972c.039-.867.049-1.143.049-3.35s-.009-2.483-.049-3.35a5.971,5.971,0,0,0-.377-1.972,4.153,4.153,0,0,0-2.376-2.376,5.949,5.949,0,0,0-1.972-.378c-.867-.039-1.143-.049-3.35-.049" transform="translate(-94.117 -353.751)"/><path class="a" d="M104.614,360.076a4.172,4.172,0,1,0,4.172,4.172,4.173,4.173,0,0,0-4.172-4.172m0,6.88a2.708,2.708,0,1,1,2.708-2.708,2.708,2.708,0,0,1-2.708,2.708" transform="translate(-96.49 -356.124)"/><path class="a" d="M114.449,359.227a.975.975,0,1,1-.975-.975.975.975,0,0,1,.975.975" transform="translate(-101.013 -355.44)"/></g></svg>