<svg xmlns="http://www.w3.org/2000/svg" width="13.623" height="17.598" viewBox="0 0 13.623 17.598"><defs><style>.a{fill:#fff;}</style></defs><path class="a" d="M98.287,413.754a.348.348,0,0,0,.507-.252c.046-.177.157-.625.206-.812a.488.488,0,0,0-.146-.563,2.92,2.92,0,0,1-.667-1.983,4.788,4.788,0,0,1,4.977-4.841c2.714,0,4.206,1.659,4.206,3.875,0,2.914-1.29,5.374-3.2,5.374a1.565,1.565,0,0,1-1.6-1.946,21.587,21.587,0,0,0,.893-3.587A1.354,1.354,0,0,0,102.1,407.5c-1.081,0-1.949,1.118-1.949,2.616a3.883,3.883,0,0,0,.323,1.6l-1.3,5.508a11.324,11.324,0,0,0-.031,3.842.134.134,0,0,0,.24.058,10.764,10.764,0,0,0,1.825-3.308c.124-.45.711-2.779.711-2.779a2.9,2.9,0,0,0,2.469,1.26c3.25,0,5.454-2.962,5.454-6.928,0-3-2.539-5.79-6.4-5.79-4.8,0-7.224,3.443-7.224,6.315C96.217,411.632,96.876,413.178,98.287,413.754Z" transform="translate(-96.217 -403.578)"/></svg>