<svg xmlns="http://www.w3.org/2000/svg" width="16.806" height="14.544" viewBox="0 0 16.806 14.544"><defs><style>.a{fill:#fff;}</style></defs><path class="a" d="M334.98,406.025q-3.494-.113-4.734,3.946a3.149,3.149,0,0,1,1.244-.276q1.282,0,1.132,1.442a6.562,6.562,0,0,1-1.132,2.539q-1.057,1.667-1.585,1.667-.68,0-1.245-2.57-.191-.754-.68-3.853-.454-2.873-2.415-2.683a5.562,5.562,0,0,0-2.491,1.509q-1.208,1.095-2.453,2.189l.791,1.019a5.224,5.224,0,0,1,1.318-.793q.866,0,1.619,2.715l1.357,4.976q1.015,2.714,2.486,2.714,2.372,0,5.8-4.456,3.314-4.267,3.427-6.722Q337.57,406.1,334.98,406.025Z" transform="translate(-320.623 -406.022)"/></svg>